<?xml version="1.0" encoding="utf-8"?>
<!-- Generator: Adobe Illustrator 15.0.2, SVG Export Plug-In . SVG Version: 6.00 Build 0)  -->
<!DOCTYPE svg PUBLIC "-//W3C//DTD SVG 1.1//EN" "http://www.w3.org/Graphics/SVG/1.1/DTD/svg11.dtd">
<svg version="1.1" id="Ebene_1" xmlns="http://www.w3.org/2000/svg" xmlns:xlink="http://www.w3.org/1999/xlink" x="0px" y="0px"
	 width="160px" height="571px" viewBox="0 0 160 571" enable-background="new 0 0 160 571" xml:space="preserve">
<rect y="30" fill-rule="evenodd" clip-rule="evenodd" fill="#D3DEE9" width="160" height="1"/>
<rect y="50" fill-rule="evenodd" clip-rule="evenodd" fill="#D3DEE9" width="160" height="1"/>
<rect y="70" fill-rule="evenodd" clip-rule="evenodd" fill="#D3DEE9" width="160" height="1"/>
<rect y="90" fill-rule="evenodd" clip-rule="evenodd" fill="#D3DEE9" width="160" height="1"/>
<rect y="110" fill-rule="evenodd" clip-rule="evenodd" fill="#D3DEE9" width="160" height="1"/>
<rect y="130" fill-rule="evenodd" clip-rule="evenodd" fill="#D3DEE9" width="160" height="1"/>
<rect y="150" fill-rule="evenodd" clip-rule="evenodd" fill="#D3DEE9" width="160" height="1"/>
<rect y="170" fill-rule="evenodd" clip-rule="evenodd" fill="#D3DEE9" width="160" height="1"/>
<rect y="190" fill-rule="evenodd" clip-rule="evenodd" fill="#D3DEE9" width="160" height="1"/>
<rect y="210" fill-rule="evenodd" clip-rule="evenodd" fill="#D3DEE9" width="160" height="1"/>
<rect y="230" fill-rule="evenodd" clip-rule="evenodd" fill="#D3DEE9" width="160" height="1"/>
<rect y="250" fill-rule="evenodd" clip-rule="evenodd" fill="#D3DEE9" width="160" height="1"/>
<rect y="270" fill-rule="evenodd" clip-rule="evenodd" fill="#D3DEE9" width="160" height="1"/>
<rect y="290" fill-rule="evenodd" clip-rule="evenodd" fill="#D3DEE9" width="160" height="1"/>
<rect y="310" fill-rule="evenodd" clip-rule="evenodd" fill="#D3DEE9" width="160" height="1"/>
<rect y="330" fill-rule="evenodd" clip-rule="evenodd" fill="#D3DEE9" width="160" height="1"/>
<rect y="350" fill-rule="evenodd" clip-rule="evenodd" fill="#D3DEE9" width="160" height="1"/>
<rect y="370" fill-rule="evenodd" clip-rule="evenodd" fill="#D3DEE9" width="160" height="1"/>
<rect y="390" fill-rule="evenodd" clip-rule="evenodd" fill="#D3DEE9" width="160" height="1"/>
<rect y="410" fill-rule="evenodd" clip-rule="evenodd" fill="#D3DEE9" width="160" height="1"/>
<rect y="430" fill-rule="evenodd" clip-rule="evenodd" fill="#D3DEE9" width="160" height="1"/>
<rect y="450" fill-rule="evenodd" clip-rule="evenodd" fill="#D3DEE9" width="160" height="1"/>
<rect y="470" fill-rule="evenodd" clip-rule="evenodd" fill="#D3DEE9" width="160" height="1"/>
<rect y="490" fill-rule="evenodd" clip-rule="evenodd" fill="#D3DEE9" width="160" height="1"/>
<rect y="510" fill-rule="evenodd" clip-rule="evenodd" fill="#D3DEE9" width="160" height="1"/>
<rect y="530" fill-rule="evenodd" clip-rule="evenodd" fill="#D3DEE9" width="160" height="1"/>
<rect y="550" fill-rule="evenodd" clip-rule="evenodd" fill="#D3DEE9" width="160" height="1"/>
<rect y="570" fill-rule="evenodd" clip-rule="evenodd" fill="#D3DEE9" width="160" height="1"/>
</svg>
